{
  "asset": {
    "version": "2.0",
    "generator": "THREE.GLTFExporter"
  },
  "scenes": [
    {
      "name": "AuxScene",
      "nodes": [
        4
      ]
    }
  ],
  "scene": 0,
  "nodes": [
    {
      "matrix": [
        1,
        0,
        0,
        0,
        0,
        2.220446049250313e-16,
        -1,
        0,
        0,
        1,
        2.220446049250313e-16,
        0,
        0,
        0,
        0,
        1
      ],
      "extras": {
        "id": "7d8953a4-2b23-4156-a06d-f5710859c17f--1c3edef6-d17c-4cc3-825a-5ebcfc1245ee"
      }
    },
    {
      "children": [
        0
      ]
    },
    {
      "matrix": [
        1,
        0,
        0,
        0,
        0,
        1,
        0,
        0,
        0,
        0,
        1,
        0,
        -0.7374745023205965,
        0,
        -0.1154646395152929,
        1
      ],
      "children": [
        1
      ]
    },
    {
      "matrix": [
        1,
        0,
        0,
        0,
        0,
        1,
        0,
        0,
        0,
        0,
        1,
        0,
        0.007332125544402213,
        0,
        0.6062920861140763,
        1
      ],
      "name": "Plane",
      "mesh": 0
    },
    {
      "name": "BeziScene",
      "children": [
        2,
        3
      ]
    }
  ],
  "bufferViews": [
    {
      "buffer": 0,
      "byteOffset": 0,
      "byteLength": 31104,
      "target": 34962,
      "byteStride": 12
    },
    {
      "buffer": 0,
      "byteOffset": 31104,
      "byteLength": 31104,
      "target": 34962,
      "byteStride": 12
    },
    {
      "buffer": 0,
      "byteOffset": 62208,
      "byteLength": 20736,
      "target": 34962,
      "byteStride": 8
    },
    {
      "buffer": 0,
      "byteOffset": 82944,
      "byteLength": 31104,
      "target": 34962,
      "byteStride": 12
    },
    {
      "buffer": 0,
      "byteOffset": 114048,
      "byteLength": 15552,
      "target": 34963
    }
  ],
  "buffers": [
    {
      "byteLength": 129600,
      "uri": "data:application/octet-stream;base64,"
    }
  ],
  "accessors": [
    {
      "bufferView": 0,
      "componentType": 5126,
      "count": 2592,
      "max": [
        0.7864999771118164,
        0,
        0.7720000147819519
      ],
      "min": [
        -0.7864999771118164,
        0,
        -0.7720000147819519
      ],
      "type": "VEC3"
    },
    {
      "bufferView": 1,
      "componentType": 5126,
      "count": 2592,
      "max": [
        1,
        1,
        0
      ],
      "min": [
        0,
        0,
        0
      ],
      "type": "VEC3"
    },
    {
      "bufferView": 2,
      "componentType": 5126,
      "count": 2592,
      "max": [
        1,
        1
      ],
      "min": [
        0,
        0
      ],
      "type": "VEC2"
    },
    {
      "bufferView": 3,
      "componentType": 5126,
      "count": 2592,
      "max": [
        1,
        1,
        1
      ],
      "min": [
        0,
        0,
        0
      ],
      "type": "VEC3"
    },
    {
      "bufferView": 4,
      "componentType": 5123,
      "count": 7776,
      "max": [
        95
      ],
      "min": [
        0
      ],
      "type": "SCALAR"
    }
  ],
  "materials": [
    {
      "pbrMetallicRoughness": {
        "baseColorFactor": [
          0.17144110072255403,
          0.17144110072255403,
          0.17144110072255403,
          1
        ],
        "metallicFactor": 1,
        "roughnessFactor": 1
      },
      "alphaMode": "MASK",
      "alphaCutoff": 0.001
    }
  ],
  "meshes": [
    {
      "primitives": [
        {
          "mode": 4,
          "attributes": {
            "POSITION": 0,
            "NORMAL": 1,
            "TEXCOORD_0": 2,
            "COLOR_0": 3
          },
          "indices": 4,
          "material": 0
        }
      ]
    }
  ],
  "extras": {
    "bezel_objects": [
      {
        "id": "7d8953a4-2b23-4156-a06d-f5710859c17f--1c3edef6-d17c-4cc3-825a-5ebcfc1245ee",
        "type": "Text",
        "lastWriter": "2387eb64-7bb4-44a7-ad20-a8328ab78f28",
        "lastUpdated": 1698525123593,
        "name": "Text 2",
        "position": {
          "x": -0.7374745023205965,
          "y": 0,
          "z": -0.1154646395152929
        },
        "rotation": {
          "x": 0,
          "y": 0,
          "z": 0
        },
        "scale": {
          "x": 1,
          "y": 1,
          "z": 1
        },
        "parent": null,
        "index": "Zi",
        "isVisible": true,
        "isLocked": false,
        "collapsed": false,
        "isScaleLinked": false,
        "urlKey": null,
        "lastGeometryUpdated": 0,
        "subdivisions": 0,
        "activeState": null,
        "activeParentStateId": null,
        "startState": null,
        "states": {},
        "parentStates": {},
        "ttl": 0,
        "parameters": {
          "text": "HONG KONG. zel mteriler iin iletilen bir lokantann ii. Kk in masalar. Birinin stnde tten bir buhurluk. Ssl bir mzik kutusu. Tavanda, tatl bir k veren in fenerleri. Arka alanda yar k geirgen bir paravana, bunun stnde ate dilli bir in ejderi tasviri var, arkadan k verilince eklemleri oynatlnca canlanr. Ancak bu renkli glge oyunu sonda kullanlacak, genel sahne tasarm iinde fazla ilgiyi ekmemesi gerekir. Duvarda bir gong asl. Solda, lokantann sokaa alan kaps. Arkada ya da sada mutfaa alan kap. Sahnenin tam ortasnda kaln, plak bir masa var. Masann ortasnda byke bir delik grlr. Wong, masalardan birinde yalnz oturmakta. Ban ellerinin arasna alm dnceli. Garson gelir, elinde anak iinde bir snger var. Bununla ortas delik masay siler, sngeri ana ile masann stnde brakr. Mzik kutusunu dmelerinden birine basar, tatl bir in ezgisi iitilir. Wong, ban kaldrr, dinler, yz ac bir glmsemeyle aydnlanr. Kap zili alar. Garson seirtir. Jonathanlar girer. Bay Jonathan 35 yalarnda, uzun boylu, atletik yapl, neeli. Turist rahatlyla giyinmi, elinde gms sapl bir baston var. Bayan Jonathan, gen, gzel, uh. Omuzunda flal bir fotoraf makinesi asl.\n\nGARSON\t Gnaydn Bay Jonathan, gnaydn Bayan Jonathan.\n\nJONATHAN\tGnaydn gnaydn.\n\nBN. JONATHAN\tAh yle heyecanlym ki, kim bilir nasl olacak, bu en gzel srpriz, Jimmy.\n\nJONATHAN\tHer ey mutluluumuz iin, sevgilim. (Karsn per)\n\nBN. JONATHAN\tBizi bekliyorlard, deil mi?\n\nGARSON\tBuyurunuz Bayan Jonathan, yle buyurunuz Bay Jonathan  \n\nBN. JONATHAN\tGarson admz da biliyor.\n\nJONATHAN \tinliler ok zekidir.\n\nBN. JONATHAN\tNe iyi ettik de Hong Kong'a geldik.\n\nJONATHAN \tDoulular ruhun derinliklerine inmede usta. Duyuyorsun deil mi, bu in mzii ttslere karp iimize dolmada.\n\nBN. JONATHAN\t(Gzlerini kapayp soluyarak) Duymaz olur muyum, biri burnumuzdan biri kulaklarmzdan ieri iniyor.\n\nJONATHAN\tTa ruhumuzun derinliklerine... (Garson'a) Hazr, deil mi? \n",
          "fontSize": 2,
          "fontFamily": "Open Sans",
          "fontWeight": "regular",
          "textAlign": "left",
          "verticalAlign": "top",
          "verticalTrim": "standard",
          "letterCase": "as-typed",
          "lineHeight": "normal",
          "letterSpacing": 0,
          "curveRadius": 0,
          "width": 1.4506288194396397,
          "depth": 1.4503282990368462,
          "color": "#ffffff"
        },
        "colliders": {},
        "asset": null,
        "assetSource": null,
        "isInstance": false,
        "assetVersion": 0,
        "activeImportedAnimation": null,
        "importedAnimations": {},
        "behaviors": {},
        "viewSettings": {
          "castShadow": true,
          "receiveShadow": true,
          "side": 2
        },
        "isInteractive": true,
        "layerOpacity": 1,
        "interactions": {},
        "version": 230927,
        "_metadata": {},
        "material": "8cef76c1-b1d2-4102-8283-5d03171e4e25"
      },
      {
        "id": "7d8953a4-2b23-4156-a06d-f5710859c17f--1c3edef6-d17c-4cc3-825a-5ebcfc1245ee",
        "type": "Text",
        "lastWriter": "2387eb64-7bb4-44a7-ad20-a8328ab78f28",
        "lastUpdated": 1698525123593,
        "name": "Text 2",
        "position": {
          "x": -0.7374745023205965,
          "y": 0,
          "z": -0.1154646395152929
        },
        "rotation": {
          "x": 0,
          "y": 0,
          "z": 0
        },
        "scale": {
          "x": 1,
          "y": 1,
          "z": 1
        },
        "parent": null,
        "index": "Zi",
        "isVisible": true,
        "isLocked": false,
        "collapsed": false,
        "isScaleLinked": false,
        "urlKey": null,
        "lastGeometryUpdated": 0,
        "subdivisions": 0,
        "activeState": null,
        "activeParentStateId": null,
        "startState": null,
        "states": {},
        "parentStates": {},
        "ttl": 0,
        "parameters": {
          "text": "HONG KONG. zel mteriler iin iletilen bir lokantann ii. Kk in masalar. Birinin stnde tten bir buhurluk. Ssl bir mzik kutusu. Tavanda, tatl bir k veren in fenerleri. Arka alanda yar k geirgen bir paravana, bunun stnde ate dilli bir in ejderi tasviri var, arkadan k verilince eklemleri oynatlnca canlanr. Ancak bu renkli glge oyunu sonda kullanlacak, genel sahne tasarm iinde fazla ilgiyi ekmemesi gerekir. Duvarda bir gong asl. Solda, lokantann sokaa alan kaps. Arkada ya da sada mutfaa alan kap. Sahnenin tam ortasnda kaln, plak bir masa var. Masann ortasnda byke bir delik grlr. Wong, masalardan birinde yalnz oturmakta. Ban ellerinin arasna alm dnceli. Garson gelir, elinde anak iinde bir snger var. Bununla ortas delik masay siler, sngeri ana ile masann stnde brakr. Mzik kutusunu dmelerinden birine basar, tatl bir in ezgisi iitilir. Wong, ban kaldrr, dinler, yz ac bir glmsemeyle aydnlanr. Kap zili alar. Garson seirtir. Jonathanlar girer. Bay Jonathan 35 yalarnda, uzun boylu, atletik yapl, neeli. Turist rahatlyla giyinmi, elinde gms sapl bir baston var. Bayan Jonathan, gen, gzel, uh. Omuzunda flal bir fotoraf makinesi asl.\n\nGARSON\t Gnaydn Bay Jonathan, gnaydn Bayan Jonathan.\n\nJONATHAN\tGnaydn gnaydn.\n\nBN. JONATHAN\tAh yle heyecanlym ki, kim bilir nasl olacak, bu en gzel srpriz, Jimmy.\n\nJONATHAN\tHer ey mutluluumuz iin, sevgilim. (Karsn per)\n\nBN. JONATHAN\tBizi bekliyorlard, deil mi?\n\nGARSON\tBuyurunuz Bayan Jonathan, yle buyurunuz Bay Jonathan  \n\nBN. JONATHAN\tGarson admz da biliyor.\n\nJONATHAN \tinliler ok zekidir.\n\nBN. JONATHAN\tNe iyi ettik de Hong Kong'a geldik.\n\nJONATHAN \tDoulular ruhun derinliklerine inmede usta. Duyuyorsun deil mi, bu in mzii ttslere karp iimize dolmada.\n\nBN. JONATHAN\t(Gzlerini kapayp soluyarak) Duymaz olur muyum, biri burnumuzdan biri kulaklarmzdan ieri iniyor.\n\nJONATHAN\tTa ruhumuzun derinliklerine... (Garson'a) Hazr, deil mi? \n",
          "fontSize": 2,
          "fontFamily": "Open Sans",
          "fontWeight": "regular",
          "textAlign": "left",
          "verticalAlign": "top",
          "verticalTrim": "standard",
          "letterCase": "as-typed",
          "lineHeight": "normal",
          "letterSpacing": 0,
          "curveRadius": 0,
          "width": 1.4506288194396397,
          "depth": 1.4503282990368462,
          "color": "#ffffff"
        },
        "colliders": {},
        "asset": null,
        "assetSource": null,
        "isInstance": false,
        "assetVersion": 0,
        "activeImportedAnimation": null,
        "importedAnimations": {},
        "behaviors": {},
        "viewSettings": {
          "castShadow": true,
          "receiveShadow": true,
          "side": 2
        },
        "isInteractive": true,
        "layerOpacity": 1,
        "interactions": {},
        "version": 230927,
        "_metadata": {},
        "material": "8cef76c1-b1d2-4102-8283-5d03171e4e25"
      },
      {
        "id": "7d8953a4-2b23-4156-a06d-f5710859c17f--1c3edef6-d17c-4cc3-825a-5ebcfc1245ee",
        "type": "Text",
        "lastWriter": "2387eb64-7bb4-44a7-ad20-a8328ab78f28",
        "lastUpdated": 1698525123593,
        "name": "Text 2",
        "position": {
          "x": -0.7374745023205965,
          "y": 0,
          "z": -0.1154646395152929
        },
        "rotation": {
          "x": 0,
          "y": 0,
          "z": 0
        },
        "scale": {
          "x": 1,
          "y": 1,
          "z": 1
        },
        "parent": null,
        "index": "Zi",
        "isVisible": true,
        "isLocked": false,
        "collapsed": false,
        "isScaleLinked": false,
        "urlKey": null,
        "lastGeometryUpdated": 0,
        "subdivisions": 0,
        "activeState": null,
        "activeParentStateId": null,
        "startState": null,
        "states": {},
        "parentStates": {},
        "ttl": 0,
        "parameters": {
          "text": "HONG KONG. zel mteriler iin iletilen bir lokantann ii. Kk in masalar. Birinin stnde tten bir buhurluk. Ssl bir mzik kutusu. Tavanda, tatl bir k veren in fenerleri. Arka alanda yar k geirgen bir paravana, bunun stnde ate dilli bir in ejderi tasviri var, arkadan k verilince eklemleri oynatlnca canlanr. Ancak bu renkli glge oyunu sonda kullanlacak, genel sahne tasarm iinde fazla ilgiyi ekmemesi gerekir. Duvarda bir gong asl. Solda, lokantann sokaa alan kaps. Arkada ya da sada mutfaa alan kap. Sahnenin tam ortasnda kaln, plak bir masa var. Masann ortasnda byke bir delik grlr. Wong, masalardan birinde yalnz oturmakta. Ban ellerinin arasna alm dnceli. Garson gelir, elinde anak iinde bir snger var. Bununla ortas delik masay siler, sngeri ana ile masann stnde brakr. Mzik kutusunu dmelerinden birine basar, tatl bir in ezgisi iitilir. Wong, ban kaldrr, dinler, yz ac bir glmsemeyle aydnlanr. Kap zili alar. Garson seirtir. Jonathanlar girer. Bay Jonathan 35 yalarnda, uzun boylu, atletik yapl, neeli. Turist rahatlyla giyinmi, elinde gms sapl bir baston var. Bayan Jonathan, gen, gzel, uh. Omuzunda flal bir fotoraf makinesi asl.\n\nGARSON\t Gnaydn Bay Jonathan, gnaydn Bayan Jonathan.\n\nJONATHAN\tGnaydn gnaydn.\n\nBN. JONATHAN\tAh yle heyecanlym ki, kim bilir nasl olacak, bu en gzel srpriz, Jimmy.\n\nJONATHAN\tHer ey mutluluumuz iin, sevgilim. (Karsn per)\n\nBN. JONATHAN\tBizi bekliyorlard, deil mi?\n\nGARSON\tBuyurunuz Bayan Jonathan, yle buyurunuz Bay Jonathan  \n\nBN. JONATHAN\tGarson admz da biliyor.\n\nJONATHAN \tinliler ok zekidir.\n\nBN. JONATHAN\tNe iyi ettik de Hong Kong'a geldik.\n\nJONATHAN \tDoulular ruhun derinliklerine inmede usta. Duyuyorsun deil mi, bu in mzii ttslere karp iimize dolmada.\n\nBN. JONATHAN\t(Gzlerini kapayp soluyarak) Duymaz olur muyum, biri burnumuzdan biri kulaklarmzdan ieri iniyor.\n\nJONATHAN\tTa ruhumuzun derinliklerine... (Garson'a) Hazr, deil mi? \n",
          "fontSize": 2,
          "fontFamily": "Open Sans",
          "fontWeight": "regular",
          "textAlign": "left",
          "verticalAlign": "top",
          "verticalTrim": "standard",
          "letterCase": "as-typed",
          "lineHeight": "normal",
          "letterSpacing": 0,
          "curveRadius": 0,
          "width": 1.4506288194396397,
          "depth": 1.4503282990368462,
          "color": "#ffffff"
        },
        "colliders": {},
        "asset": null,
        "assetSource": null,
        "isInstance": false,
        "assetVersion": 0,
        "activeImportedAnimation": null,
        "importedAnimations": {},
        "behaviors": {},
        "viewSettings": {
          "castShadow": true,
          "receiveShadow": true,
          "side": 2
        },
        "isInteractive": true,
        "layerOpacity": 1,
        "interactions": {},
        "version": 230927,
        "_metadata": {},
        "material": "8cef76c1-b1d2-4102-8283-5d03171e4e25"
      },
      {
        "id": "7d8953a4-2b23-4156-a06d-f5710859c17f--98b775b0-42f2-4ae5-931c-b5d27b3508f6",
        "type": "Plane",
        "lastWriter": "2387eb64-7bb4-44a7-ad20-a8328ab78f28",
        "lastUpdated": 1698525326429,
        "name": "Plane 1",
        "position": {
          "x": 0.007332125544402213,
          "y": 0,
          "z": 0.6062920861140763
        },
        "rotation": {
          "x": 0,
          "y": 0,
          "z": 0
        },
        "scale": {
          "x": 1,
          "y": 1,
          "z": 1
        },
        "parent": null,
        "index": "Zh",
        "isVisible": true,
        "isLocked": false,
        "collapsed": false,
        "isScaleLinked": false,
        "urlKey": null,
        "lastGeometryUpdated": 1698525310347,
        "subdivisions": 0,
        "activeState": null,
        "activeParentStateId": null,
        "startState": null,
        "states": {},
        "parentStates": {},
        "ttl": 0,
        "parameters": {
          "width": 1.573,
          "depth": 1.544,
          "radii": {
            "tl": 0.05,
            "tr": 0.05,
            "br": 0.05,
            "bl": 0.05
          },
          "height": 0,
          "bendAngle": 0,
          "areDimensionsLinked": false,
          "radiusSegments": 16,
          "bendSegments": 16
        },
        "colliders": {},
        "asset": null,
        "assetSource": null,
        "isInstance": false,
        "assetVersion": 0,
        "activeImportedAnimation": null,
        "importedAnimations": {},
        "behaviors": {},
        "viewSettings": {
          "castShadow": true,
          "receiveShadow": true,
          "side": 0
        },
        "isInteractive": true,
        "layerOpacity": 1,
        "interactions": {},
        "version": 230927,
        "_metadata": {},
        "material": "34b2754e-9158-4b6b-b4a3-c3e76b3a2742"
      }
    ]
  }
}